HIERARCHY
ROOT Hips
{
	OFFSET 0.000000 0.000000 0.000000
	CHANNELS 6 Xposition Yposition Zposition Xrotation Yrotation Zrotation
	JOINT Chest
	{
		OFFSET 0.000000 9.585900 0.002600
		CHANNELS 3 Xrotation Yrotation Zrotation
		JOINT Chest2
		{
			OFFSET 0.000000 9.601200 -0.005300
			CHANNELS 3 Xrotation Yrotation Zrotation
			JOINT Chest3
			{
				OFFSET 0.000000 9.561800 0.000000
				CHANNELS 3 Xrotation Yrotation Zrotation
				JOINT Chest4
				{
					OFFSET 0.000000 9.552100 0.000000
					CHANNELS 3 Xrotation Yrotation Zrotation
					JOINT Neck
					{
						OFFSET 0.000000 14.453000 0.000000
						CHANNELS 3 Xrotation Yrotation Zrotation
						JOINT Head
						{
							OFFSET 0.000000 8.936500 -0.011300
							CHANNELS 3 Xrotation Yrotation Zrotation
							End Site
							{
								OFFSET 0.000000 0.000000 0.000000
							}
						}
					}
					JOINT RightCollar
					{
						OFFSET -2.921100 9.558500 0.000000
						CHANNELS 3 Xrotation Yrotation Zrotation
						JOINT RightShoulder
						{
							OFFSET -13.519700 0.000000 0.000000
							CHANNELS 3 Xrotation Yrotation Zrotation
							JOINT RightElbow
							{
								OFFSET 0.000000 -29.696600 0.000000
								CHANNELS 3 Xrotation Yrotation Zrotation
								JOINT RightWrist
								{
									OFFSET 0.000000 -24.004700 0.000000
									CHANNELS 3 Xrotation Yrotation Zrotation
									End Site
									{
										OFFSET 0.000000 0.000000 0.000000
									}
								}
							}
						}
					}
					JOINT LeftCollar
					{
						OFFSET 2.921100 9.558500 0.000000
						CHANNELS 3 Xrotation Yrotation Zrotation
						JOINT LeftShoulder
						{
							OFFSET 13.519700 0.000000 0.000000
							CHANNELS 3 Xrotation Yrotation Zrotation
							JOINT LeftElbow
							{
								OFFSET 0.000000 -29.696600 0.000000
								CHANNELS 3 Xrotation Yrotation Zrotation
								JOINT LeftWrist
								{
									OFFSET 0.000000 -24.004700 0.000000
									CHANNELS 3 Xrotation Yrotation Zrotation
									End Site
									{
										OFFSET 0.000000 0.000000 0.000000
									}
								}
							}
						}
					}
				}
			}
		}
	}
	JOINT RightHip
	{
		OFFSET -7.771700 -0.012900 -0.001300
		CHANNELS 3 Xrotation Yrotation Zrotation
		JOINT RightKnee
		{
			OFFSET 0.000000 -40.869801 0.001200
			CHANNELS 3 Xrotation Yrotation Zrotation
			JOINT RightAnkle
			{
				OFFSET 0.000000 -39.717899 0.002100
				CHANNELS 3 Xrotation Yrotation Zrotation
				JOINT RightToe
				{
					OFFSET 0.000000 -4.965400 11.033500
					CHANNELS 3 Xrotation Yrotation Zrotation
					End Site
					{
						OFFSET 0.000000 0.000000 0.000000
					}
				}
			}
		}
	}
	JOINT LeftHip
	{
		OFFSET 7.771700 -0.012900 -0.001300
		CHANNELS 3 Xrotation Yrotation Zrotation
		JOINT LeftKnee
		{
			OFFSET 0.000000 -40.869801 0.001200
			CHANNELS 3 Xrotation Yrotation Zrotation
			JOINT LeftAnkle
			{
				OFFSET 0.000000 -39.717899 0.002100
				CHANNELS 3 Xrotation Yrotation Zrotation
				JOINT LeftToe
				{
					OFFSET 0.000000 -4.965400 11.033500
					CHANNELS 3 Xrotation Yrotation Zrotation
					End Site
					{
						OFFSET 0.000000 0.000000 0.000000
					}
				}
			}
		}
	}
}
MOTION
Frames: 7
Frame Time: 0.032
0.0 0.0 0.0 -178.274986 22.960369 179.123159 5.281451 3.863462 0.414521 -0.921516 2.607018 -0.783618 -0.816884 -0.147596 0.727981 2.638737 2.235293 -0.308288 17.940264 0.528346 -0.265798 -1.648038 2.932304 -0.622211 10.739537 1.848489 2.329137 -22.287186 -21.091780 -13.036896 -90.938122 -23.867708 1.590788 -13.318441 -8.680872 -34.800627 8.863227 -1.106295 -0.795883 -11.787464 29.652928 -0.738477 -81.271116 32.589025 -20.446818 5.245483 11.380014 8.105965 -70.948938 -5.516760 -3.784379 76.899440 -9.830515 -1.651872 -8.207909 -4.462684 -2.776361 0.750942 0.162377 0.104074 -74.371048 3.374106 20.773225 71.389684 17.199142 -3.623467 -15.384207 -18.719216 -2.158740 -0.345371 -0.014601 -0.377908
0.0 0.0 0.0 -178.258075 22.949825 179.123856 5.287855 3.838694 0.401342 -0.947670 2.559611 -0.770754 -0.854156 -0.189151 0.749946 2.619297 2.193731 -0.286268 17.905373 0.492134 -0.294324 -1.670022 2.905049 -0.625742 10.694813 1.830311 2.298431 -22.403140 -21.130080 -13.096554 -90.981473 -24.005284 1.484107 -13.365523 -8.769091 -34.764222 8.831328 -1.139300 -0.775647 -11.865002 29.661893 -0.675176 -81.355947 32.742120 -20.348155 5.156485 11.450772 8.115920 -70.974449 -5.530242 -3.800996 76.878383 -9.883509 -1.657023 -8.245427 -4.487318 -2.797094 0.728903 0.144546 0.100232 -74.393744 3.314745 20.791140 71.387320 17.152222 -3.624630 -15.421913 -18.742319 -2.149757 -0.370954 -0.033550 -0.370016
0.0 0.0 0.0 -178.261257 22.933393 179.122968 5.294181 3.850273 0.396109 -0.952853 2.574869 -0.746401 -0.856874 -0.158262 0.771354 2.615994 2.223278 -0.258862 17.899091 0.521486 -0.301743 -1.678991 2.914207 -0.646523 10.709930 1.872633 2.269059 -22.473173 -21.137960 -13.164280 -90.950034 -24.107656 1.395288 -13.373885 -8.799739 -34.720126 8.812192 -1.119865 -0.745147 -11.908437 29.742759 -0.625872 -81.371664 32.927119 -20.262583 5.086441 11.545249 8.108028 -70.970897 -5.500244 -3.785762 76.858698 -9.885446 -1.667045 -8.244309 -4.456680 -2.795219 0.717508 0.162512 0.084573 -74.404474 3.323995 20.819766 71.389042 17.182237 -3.623963 -15.446563 -18.737526 -2.143476 -0.389408 -0.015312 -0.371922
0.0 0.0 0.0 -178.264905 22.944634 179.133773 5.320306 3.894126 0.400878 -0.949686 2.593931 -0.746377 -0.854760 -0.125750 0.776314 2.618859 2.254858 -0.251775 17.901661 0.560951 -0.308673 -1.662300 2.945829 -0.643149 10.733037 1.928207 2.264846 -22.529447 -21.159808 -13.203362 -90.953353 -24.219137 1.241311 -13.365284 -8.838269 -34.699871 8.819815 -1.081979 -0.739821 -11.933946 29.854217 -0.595318 -81.413888 33.135679 -20.169472 5.044877 11.670121 8.113262 -70.980596 -5.470195 -3.781240 76.857373 -9.853161 -1.674361 -8.235234 -4.425979 -2.795829 0.730642 0.203505 0.091118 -74.426891 3.336995 20.846678 71.394697 17.232962 -3.623268 -15.453815 -18.718852 -2.144804 -0.379723 0.025313 -0.366063
0.0 0.0 0.0 -178.189595 22.960745 179.157351 5.351009 3.898070 0.341710 -0.936327 2.580047 -0.711916 -0.833325 -0.127535 0.827595 2.640587 2.257030 -0.203654 17.914077 0.555586 -0.384350 -1.634101 2.941127 -0.709448 10.761697 1.938061 2.182639 -22.574885 -21.193360 -13.312922 -90.960409 -24.379392 1.139909 -13.361768 -8.917595 -34.636603 8.840213 -1.082021 -0.698676 -11.955587 29.903343 -0.525269 -81.458257 33.324080 -20.142870 5.006613 11.750423 8.060517 -70.975651 -5.443410 -3.820001 76.841274 -9.882229 -1.734362 -8.222869 -4.422693 -2.859276 0.753537 0.209815 0.035340 -74.423271 3.308550 20.880815 71.402914 17.211611 -3.677085 -15.438495 -18.727078 -2.097892 -0.360600 0.030958 -0.372776
0.0 0.0 0.0 -178.186617 22.917600 179.118282 5.385347 3.899961 0.386288 -0.926481 2.569575 -0.712038 -0.826129 -0.127035 0.821056 2.662309 2.251912 -0.204257 17.915101 0.572699 -0.337999 -1.644182 2.926201 -0.670624 10.749813 1.961859 2.218678 -22.659137 -21.235705 -13.338772 -90.935465 -24.488957 1.011868 -13.356976 -8.956255 -34.621833 8.830707 -1.077905 -0.685682 -12.022619 29.942969 -0.450007 -81.530015 33.442396 -19.984925 4.918871 11.834704 8.109555 -70.928619 -5.466973 -3.776192 76.860132 -9.871713 -1.704496 -8.214646 -4.412974 -2.796715 0.746101 0.205114 0.071544 -74.385275 3.286201 20.855288 71.430159 17.241921 -3.638950 -15.453834 -18.729533 -2.132147 -0.371209 0.025124 -0.360049
0.0 0.0 0.0 -178.120419 22.877647 179.066209 5.433164 3.892591 0.397814 -0.908261 2.544898 -0.711749 -0.793826 -0.136061 0.820231 2.690195 2.242079 -0.200630 17.928456 0.565557 -0.345660 -1.619949 2.909042 -0.664119 10.790562 1.961560 2.194111 -22.665037 -21.268709 -13.363357 -90.916102 -24.629794 0.892184 -13.353259 -9.005281 -34.594560 8.855674 -1.100918 -0.683405 -12.042067 29.980702 -0.428373 -81.568769 33.578726 -19.912134 4.853763 11.900548 8.116609 -70.878902 -5.474032 -3.764514 76.876948 -9.864152 -1.710296 -8.203248 -4.426702 -2.787595 0.769317 0.199515 0.078628 -74.338481 3.271913 20.838453 71.461783 17.236920 -3.645232 -15.426742 -18.726101 -2.118211 -0.351411 0.019867 -0.354261
